<svg xmlns="http://www.w3.org/2000/svg" xmlns:xlink="http://www.w3.org/1999/xlink" viewBox="0 0 3287.31 1844.25"><defs><style>.cls-1{fill:url(#linear-gradient);}.cls-2{fill:url(#linear-gradient-2);}.cls-3{fill:url(#linear-gradient-3);}.cls-4{fill:url(#linear-gradient-4);}.cls-5{fill:url(#linear-gradient-5);}.cls-6{fill:url(#linear-gradient-6);}.cls-7{fill:url(#linear-gradient-7);}.cls-8{fill:url(#linear-gradient-8);}</style><linearGradient id="linear-gradient" x1="662.32" y1="1096.5" x2="1680.12" y2="295.37" gradientTransform="translate(755.65 46.06)" gradientUnits="userSpaceOnUse"><stop offset="0.45" stop-color="#f7901e"/><stop offset="1" stop-color="#f26922"/></linearGradient><linearGradient id="linear-gradient-2" x1="509.9" y1="1583.55" x2="1907.71" y2="483.3" gradientTransform="translate(1038.71 -141.49)" gradientUnits="userSpaceOnUse"><stop offset="0" stop-color="#f7901e"/><stop offset="1" stop-color="#f26922"/></linearGradient><linearGradient id="linear-gradient-3" x1="1325.22" y1="1667.55" x2="2172.89" y2="1000.33" gradientTransform="translate(1018.35 -776.5)" xlink:href="#linear-gradient"/><linearGradient id="linear-gradient-4" x1="723.18" y1="1436.1" x2="1724.4" y2="648.01" gradientTransform="translate(1070.61 -294.55)" xlink:href="#linear-gradient"/><linearGradient id="linear-gradient-5" x1="-61.47" y1="276.35" x2="659.67" y2="-291.28" gradientTransform="translate(483.73 601.94)" gradientUnits="userSpaceOnUse"><stop offset="0.27" stop-color="#f7901e"/><stop offset="0.78" stop-color="#f26922"/></linearGradient><linearGradient id="linear-gradient-6" x1="356.24" y1="1057.57" x2="1432.07" y2="210.75" gradientTransform="translate(658.57 71.93)" xlink:href="#linear-gradient"/><linearGradient id="linear-gradient-7" x1="319.7" y1="500.21" x2="1040.84" y2="-67.42" gradientTransform="translate(-94.49 485.48) scale(2.02 2.02)" gradientUnits="userSpaceOnUse"><stop offset="0.66" stop-color="#f7901e"/><stop offset="0.67" stop-color="#f78e1e"/><stop offset="0.78" stop-color="#f47920"/><stop offset="0.89" stop-color="#f36d22"/><stop offset="1" stop-color="#f26922"/></linearGradient><linearGradient id="linear-gradient-8" x1="-296.49" y1="209.34" x2="424.65" y2="-358.28" gradientTransform="translate(385.81 606.97)" gradientUnits="userSpaceOnUse"><stop offset="0.14" stop-color="#f7901e"/><stop offset="1" stop-color="#f26922"/></linearGradient></defs><title>box1Asset 3</title><g id="Layer_2" data-name="Layer 2"><g id="Layer_3" data-name="Layer 3"><rect class="cls-1" x="1465.69" y="280.81" width="922.37" height="922.37" transform="translate(222.57 1907.65) rotate(-55.43)"/><rect class="cls-2" x="1614.14" y="258.56" width="1266.75" height="1266.75" transform="translate(400.52 2452.54) rotate(-61.84)"/><rect class="cls-3" x="2383.31" y="173.34" width="768.19" height="768.19" transform="translate(969.99 2734.27) rotate(-61.84)"/><rect class="cls-4" x="1840.73" y="293.83" width="907.35" height="907.35" transform="translate(-21.43 1425.7) rotate(-34.37)"/><rect class="cls-5" x="456.06" y="267.71" width="653.53" height="653.53" transform="translate(-169.86 836.56) rotate(-51.47)"/><rect class="cls-6" x="1065.24" y="218.61" width="974.96" height="974.96" transform="translate(-104.17 1111.31) rotate(-38.2)"/><rect class="cls-7" x="618.81" y="262.78" width="1318.69" height="1318.69" transform="translate(-223.06 1402.06) rotate(-53.54)"/><rect class="cls-8" x="123.13" y="205.73" width="653.53" height="653.53" transform="translate(-213.04 316.92) rotate(-31.79)"/></g></g></svg>