<svg xmlns="http://www.w3.org/2000/svg" xmlns:xlink="http://www.w3.org/1999/xlink" viewBox="0 0 171.53 167.31"><defs><style>.cls-1{fill:url(#linear-gradient);}</style><linearGradient id="linear-gradient" x1="3.31" y1="62.08" x2="168.25" y2="109.38" gradientUnits="userSpaceOnUse"><stop offset="0.23" stop-color="#f7901e"/><stop offset="0.28" stop-color="#f68b1f"/><stop offset="0.51" stop-color="#f47820"/><stop offset="0.75" stop-color="#f26d22"/><stop offset="1" stop-color="#f26922"/></linearGradient></defs><title>nameAsset 2</title><g id="Layer_2" data-name="Layer 2"><g id="Layer_12" data-name="Layer 12"><path class="cls-1" d="M85.76,0a85.78,85.78,0,0,0-27.1,167.16c4.29.78,5.64-1.76,5.64-4,0-2,0-7.73,0-14.89-23.85,5.18-28.8-11.3-28.8-11.3C31.6,127,26,124.39,26,124.39c-7.79-5.32.58-5.22.58-5.22,8.61.61,13.14,8.84,13.14,8.84,7.65,13.1,20.07,9.31,25,7.13.78-5.54,3-9.32,5.45-11.47C51.07,121.51,31,114.15,31,81.28a33.14,33.14,0,0,1,8.83-23c-.88-2.17-3.83-10.89.84-22.7,0,0,7.2-2.31,23.58,8.8a81.37,81.37,0,0,1,42.95,0c16.38-11.1,23.57-8.8,23.57-8.8,4.68,11.81,1.73,20.54.85,22.7a33.13,33.13,0,0,1,8.81,23c0,33-20.05,40.2-39.16,42.32,3.08,2.65,5.87,7.8,5.87,15.8v23.74c0,2.29,1.38,4.83,5.74,4A85.78,85.78,0,0,0,85.76,0Z"/></g></g></svg>