<svg xmlns="http://www.w3.org/2000/svg" xmlns:xlink="http://www.w3.org/1999/xlink" viewBox="0 0 754.38 239.66"><defs><style>.cls-1{fill:url(#linear-gradient);}</style><linearGradient id="linear-gradient" x1="349.24" y1="-21.37" x2="396.82" y2="248.46" gradientUnits="userSpaceOnUse"><stop offset="0.42" stop-color="#f7901e"/><stop offset="0.46" stop-color="#f68b1f"/><stop offset="0.63" stop-color="#f47820"/><stop offset="0.81" stop-color="#f26d22"/><stop offset="1" stop-color="#f26922"/></linearGradient></defs><title>nameAsset 1</title><g id="Layer_2" data-name="Layer 2"><g id="Layer_11" data-name="Layer 11"><path class="cls-1" d="M228.4,7.26c0,1.07-.74,2.2-2.2,3.4a13.71,13.71,0,0,1-5.8,2.6q-.81,0-13.6,2.8-19.6,3.21-34.8,6.8l-36.4,8.8h-.4a22.14,22.14,0,0,1-1.6,5.6,24.93,24.93,0,0,0-1.6,4.8q-1.2,6.4-7.2,21.2-14.4,36-22,54-9.6,22.41-22.4,51.2-4.8,9.6-15.2,28.8l-7.6,13.6-10.8,18.8q-3.6,6.4-12,7.6c0,.27-.06.34-.2.2s-.33-.06-.6.2q-1.2.4-4.2,1.2a19.92,19.92,0,0,1-5,.8c-1.86,0-2.8-.53-2.8-1.6a27.75,27.75,0,0,1-.4-5.2,8,8,0,0,1,1.2-4.8,121.28,121.28,0,0,0,7.6-15.6q3.6-8.79,4.8-12L48,167.26q1.59-4,8.4-20l3.6-8,18.4-42.8q9.6-23.6,19.2-44l5.6-12.8.4-.8-20.8,4Q66,46.07,33.2,51.66q-6.8,1.2-20.4,2.8L2,54.06c-.8,0-1.2-.13-1.2-.4-.53-.53-.8-.93-.8-1.2a2.15,2.15,0,0,1,1.6-2.4l3.2-1.2a378.17,378.17,0,0,1,38-11.6q20-4.8,30-6.8l44.8-10.4q22.4-4.8,33.6-6.4l17.2-2,17.2-2.4a265.29,265.29,0,0,1,30-3.2,15.61,15.61,0,0,0,3.4-.4,19.79,19.79,0,0,1,4.2-.4,12.27,12.27,0,0,1,3.6.4C227.86,5.93,228.4,6.46,228.4,7.26Z"/><path class="cls-1" d="M152.39,160.06a1.57,1.57,0,0,1,1.6,1.2q.39,1.2-1.2,3.2a109.26,109.26,0,0,1-14.4,16.6q-9.6,9.4-16.4,13.8-3.6,2.4-10,3.2h-5.6a12.3,12.3,0,0,1-10-3.6,18.83,18.83,0,0,1-5.2-8.8,37,37,0,0,1-.8-9.2l.4-3.2q0-1.59,1.8-8a45.44,45.44,0,0,1,5-11.6,57.72,57.72,0,0,1,10-12.8,4.06,4.06,0,0,1,4.4-1.2c.26.27.8.27,1.6,0a6.68,6.68,0,0,1,2-.4,6.91,6.91,0,0,1,2.8-.4q2.79,0,6.4,2.8,4,4,4,6.4,0,1.6-2,5.6t-4.2,7.6q-2.2,3.6-4.2,7.2a80.39,80.39,0,0,0-4.8,12,29,29,0,0,0-.4,8c.26,1.6,1.2,2,2.8,1.2q2.79-1.59,5-3t3.8-2.2q4-2.79,17.6-16.4a89.5,89.5,0,0,1,6.8-6.4A4.61,4.61,0,0,1,152.39,160.06ZM140,129.26a2.3,2.3,0,0,1-.8,1.6,2.7,2.7,0,0,1-2,.8h-.8l-10.8-2.4c-.54-.26-1.8-1-3.8-2.2a37.47,37.47,0,0,0-5-2.6,4,4,0,0,1-1.6-4,22.78,22.78,0,0,1,6.4-8.4,4.31,4.31,0,0,1,4-.4l8.4,4.8a10.28,10.28,0,0,1,4.4,6,37.51,37.51,0,0,1,1.6,6Z"/><path class="cls-1" d="M269.59,160.46v1.2a3.56,3.56,0,0,1-.6,1.8,7.7,7.7,0,0,1-1,1.4,91.41,91.41,0,0,1-13,12.8q-8.2,6.81-12.2,8.8a25.5,25.5,0,0,1-10.8,2.4,24.14,24.14,0,0,1-7.2-.8q-4-.39-8-6c-.54-.8-.8-2.26-.8-4.4l1.2-9.6v-.8l-1.2.4q-12,10-18.4,19.2c-.27.54-1.34,1-3.2,1.4s-3.2.74-4,1l-2.4.4a2.58,2.58,0,0,1-2.2-.8,3.61,3.61,0,0,0-1.8-1.2,3.13,3.13,0,0,1-2.4-3.2,19.06,19.06,0,0,1,1.2-5.2,48.4,48.4,0,0,1,7.6-16.8l.8-1.6a208.27,208.27,0,0,0-22.8,15.6l-2.4,4.4-1.2,2.8-1.6,2-4,6q-4,6.81-11.6,6.8a12.07,12.07,0,0,1-3.6-.4q-3.2-.8-8-1.6-3.2-.8-2-3.6a123,123,0,0,1,4.4-13.2q5.6-13.59,16.8-28.8l3.2-4c1.6-1.86,2.66-3.06,3.2-3.6h.4a4.75,4.75,0,0,1,1.4.4,2.11,2.11,0,0,0,1.8,0q4-.39,6,1.8a26.15,26.15,0,0,1,4,6.6q.8,1.6,0,4.8l-1.2,6.8a49,49,0,0,1,7.2-5.6,36.21,36.21,0,0,1,7-4,18.77,18.77,0,0,1,7-1.2q7.59,0,9.6,6.8l.4.8a2.3,2.3,0,0,0,.4,1.6,1.06,1.06,0,0,0,1.2,1.2q.8,0,4.8-2l6.8-2.4a12.49,12.49,0,0,1,5.2-1.6h1.6c2.66,0,4.46.54,5.4,1.6s1.26,2.94,1,5.6l-1.2,12.8a2.88,2.88,0,0,0,1,2.4,3.54,3.54,0,0,0,3,.4,66.78,66.78,0,0,0,22-14.2q4.4-4.2,6.4-6.2a9.33,9.33,0,0,1,2.2-1.2,2.86,2.86,0,0,1,3.4.8Z"/><path class="cls-1" d="M332.39,152.66q1.2.6,1.2,2.6c0,1.87-.4,2.94-1.2,3.2a6.45,6.45,0,0,1-1.6.4,38.61,38.61,0,0,1-7.2.4q-12,0-18.8-1.6a2.7,2.7,0,0,1-1.2-.2c-.27-.13-.4.07-.4.6a91.51,91.51,0,0,1-4.4,19.2,207.24,207.24,0,0,1-9.2,21.6,51.81,51.81,0,0,1-4.4,7.6q-3.6,4.41-7.6,4.4l-4.4,1.2a21.25,21.25,0,0,1-4.8.4,10.33,10.33,0,0,1-3.2-.4,48.1,48.1,0,0,0-7.2-.4c-2.94,0-5.86-1.2-8.8-3.6a12.16,12.16,0,0,1-5.2-10q0-11.6,7.6-22.4,6.39-12.8,11.6-18l3.6-2.4a11.15,11.15,0,0,1,4.8-.8,22.81,22.81,0,0,1,4.4.4,9,9,0,0,1,3.2,1.2,30.5,30.5,0,0,1,4.4,5.2,3.37,3.37,0,0,1,0,3.2l-2,5.6-5.2,12.4-4,9.6,1.6-.8q12-12.8,19.2-32a1.37,1.37,0,0,0,.4-1,1.35,1.35,0,0,1,.4-1,1.85,1.85,0,0,0-1.2-2l-3.2-.8a16.08,16.08,0,0,1-5-2,22.19,22.19,0,0,1-4.2-4q-3.21-4.4-3.2-8a15.83,15.83,0,0,1,2-6.8q3.6-6.8,12-9.6a12.26,12.26,0,0,1,3.6-.4,8.58,8.58,0,0,1,9.2,8.8v16a1.88,1.88,0,0,0,1.6,2,36.67,36.67,0,0,0,13.2,2.8,67.09,67.09,0,0,0,7.8-.4,17,17,0,0,0,4.2-.8A4.87,4.87,0,0,1,332.39,152.66Zm-34.8-15.8a8.43,8.43,0,0,0-.4-3.2,9.46,9.46,0,0,0-.4-1.8,5.05,5.05,0,0,0-1.2-2.2h-.4q-.81,0-2.8,2l-3.2,5.2a7.89,7.89,0,0,0-.8,3.6,4.89,4.89,0,0,0,1.2,3.6,17.27,17.27,0,0,0,3.4,2,17.75,17.75,0,0,1,3.4,2l.8-7.6A12.28,12.28,0,0,0,297.59,136.86Z"/><path class="cls-1" d="M483.58,35.66a47.75,47.75,0,0,1,15.2-2.4,30.58,30.58,0,0,1,5.6.4q11.6,1.2,20.8,11.6a11.19,11.19,0,0,1,2.8,7.6,10.48,10.48,0,0,1-.4,3.2,32.77,32.77,0,0,1-6.8,13.6,150,150,0,0,1-16,16,207.72,207.72,0,0,1-36,25.2q-8,4.8-24,13.6a10.37,10.37,0,0,0-4.4,5.2l-8.8,21.6a117.59,117.59,0,0,1-8.4,16l-16.4,29.6-13.2,23.2q0,.4-3.2,4.4a14.49,14.49,0,0,1-2.8,2.4q-.81.4-4,1.6a17.16,17.16,0,0,1-6,1.2h-1.2a11.07,11.07,0,0,0-3,.4,12.41,12.41,0,0,1-3.4.4,2.15,2.15,0,0,1-2.8-2q-.8-6.39,2-10a31.17,31.17,0,0,0,5.2-11.2l8.4-20q1.59-3.6,5.4-12.6t6.2-16.2q3.2-9.2,8.4-21.2l3.2-7.6,8.8-22,19.6-47.6,15.2-34q1.2-2.79,3.4-8.4a30.37,30.37,0,0,1,5.4-9.2l3.2-3.6q3.2-4,10.8-4.8,2-.39,4.2,1.8a8.71,8.71,0,0,1,2.6,4.2q0,7.2-.4,10.8-2,12-4,20c0,1.34.66,1.74,2,1.2A29.73,29.73,0,0,0,483.58,35.66Zm8,6q-5.6,1.6-17.2,8a10.75,10.75,0,0,0-6,7.2,71.1,71.1,0,0,1-2.6,8.4q-1.41,3.6-2.2,6l-10,26.4-.8,2c0,.27.26.54.8.8l2.4-2,14-11.2,7.6-5.6q10.4-7.2,15.2-11.2a107,107,0,0,0,11.6-10.4,60.16,60.16,0,0,0,5.2-8q1.59-2.79-1.2-6.4a25.31,25.31,0,0,0-5.2-3.2,17.27,17.27,0,0,0-6.8-1.2h-3.2Z"/><path class="cls-1" d="M515.58,152.66q1.2.6,1.2,2.6c0,1.87-.4,2.94-1.2,3.2a6.47,6.47,0,0,1-1.6.4,38.61,38.61,0,0,1-7.2.4q-12,0-18.8-1.6a2.7,2.7,0,0,1-1.2-.2c-.27-.13-.4.07-.4.6a91.45,91.45,0,0,1-4.4,19.2,207.36,207.36,0,0,1-9.2,21.6,51.75,51.75,0,0,1-4.4,7.6q-3.6,4.41-7.6,4.4l-4.4,1.2a21.25,21.25,0,0,1-4.8.4,10.33,10.33,0,0,1-3.2-.4,48.1,48.1,0,0,0-7.2-.4c-2.94,0-5.86-1.2-8.8-3.6a12.16,12.16,0,0,1-5.2-10q0-11.6,7.6-22.4,6.39-12.8,11.6-18l3.6-2.4a11.15,11.15,0,0,1,4.8-.8,22.82,22.82,0,0,1,4.4.4,9,9,0,0,1,3.2,1.2,30.47,30.47,0,0,1,4.4,5.2,3.37,3.37,0,0,1,0,3.2l-2,5.6-5.2,12.4-4,9.6,1.6-.8q12-12.8,19.2-32a1.37,1.37,0,0,0,.4-1,1.35,1.35,0,0,1,.4-1,1.85,1.85,0,0,0-1.2-2l-3.2-.8a16.09,16.09,0,0,1-5-2,22.21,22.21,0,0,1-4.2-4q-3.21-4.4-3.2-8a15.83,15.83,0,0,1,2-6.8q3.6-6.8,12-9.6a12.26,12.26,0,0,1,3.6-.4,8.58,8.58,0,0,1,9.2,8.8v16a1.88,1.88,0,0,0,1.6,2,36.67,36.67,0,0,0,13.2,2.8,67.08,67.08,0,0,0,7.8-.4,17,17,0,0,0,4.2-.8A4.88,4.88,0,0,1,515.58,152.66Zm-34.8-15.8a8.42,8.42,0,0,0-.4-3.2,9.46,9.46,0,0,0-.4-1.8,5.05,5.05,0,0,0-1.2-2.2h-.4q-.81,0-2.8,2l-3.2,5.2a7.89,7.89,0,0,0-.8,3.6,4.89,4.89,0,0,0,1.2,3.6,17.27,17.27,0,0,0,3.4,2,17.77,17.77,0,0,1,3.4,2l.8-7.6A12.27,12.27,0,0,0,480.78,136.86Z"/><path class="cls-1" d="M628.78,160.46v1.2a3.55,3.55,0,0,1-.6,1.8,7.73,7.73,0,0,1-1,1.4,91.39,91.39,0,0,1-13,12.8q-8.2,6.81-12.2,8.8a25.5,25.5,0,0,1-10.8,2.4,24.15,24.15,0,0,1-7.2-.8q-4-.39-8-6c-.54-.8-.8-2.26-.8-4.4l1.2-9.6v-.8l-1.2.4q-12,10-18.4,19.2c-.27.54-1.34,1-3.2,1.4s-3.2.74-4,1l-2.4.4a2.58,2.58,0,0,1-2.2-.8,3.61,3.61,0,0,0-1.8-1.2,3.14,3.14,0,0,1-2.4-3.2,19.07,19.07,0,0,1,1.2-5.2,48.4,48.4,0,0,1,7.6-16.8l.8-1.6a208.28,208.28,0,0,0-22.8,15.6l-2.4,4.4-1.2,2.8-1.6,2-4,6q-4,6.81-11.6,6.8a12.07,12.07,0,0,1-3.6-.4q-3.2-.8-8-1.6-3.2-.8-2-3.6a123.09,123.09,0,0,1,4.4-13.2q5.6-13.59,16.8-28.8l3.2-4c1.6-1.86,2.66-3.06,3.2-3.6h.4a4.75,4.75,0,0,1,1.4.4,2.11,2.11,0,0,0,1.8,0q4-.39,6,1.8a26.15,26.15,0,0,1,4,6.6q.8,1.6,0,4.8l-1.2,6.8a49,49,0,0,1,7.2-5.6,36.21,36.21,0,0,1,7-4,18.77,18.77,0,0,1,7-1.2q7.59,0,9.6,6.8l.4.8a2.3,2.3,0,0,0,.4,1.6,1.06,1.06,0,0,0,1.2,1.2q.8,0,4.8-2l6.8-2.4a12.49,12.49,0,0,1,5.2-1.6h1.6c2.66,0,4.46.54,5.4,1.6s1.26,2.94,1,5.6l-1.2,12.8a2.88,2.88,0,0,0,1,2.4,3.54,3.54,0,0,0,3,.4,66.79,66.79,0,0,0,22-14.2q4.4-4.2,6.4-6.2a9.33,9.33,0,0,1,2.2-1.2,2.86,2.86,0,0,1,3.4.8Z"/><path class="cls-1" d="M625.18,196.86q-9.21,0-13.6-4.2a9.22,9.22,0,0,1-2.8-9.8q2-6.39,4-11.6a92.14,92.14,0,0,1,10-19.2,48.08,48.08,0,0,1,20.4-16,17,17,0,0,1,7.6-2h2q6.39.81,6.4,5.2v.8a11.47,11.47,0,0,1-1.2,5.2,33.09,33.09,0,0,1-10,14,81,81,0,0,1-8.8,6.8q-2.8,2.8-3.2,4.8l-1,4a16.44,16.44,0,0,0-.6,3.6q-.4,3.6,4,3.6H640q1.59,0,17.6-10,18.39-12,20.8-12a5.41,5.41,0,0,0,1.8-.8q1.4-.8,3,.8,1.59,1.2-1.2,4l-13.6,9.2-10.8,7.2q-8.4,5.2-17.6,11.6a18.83,18.83,0,0,1-8.8,4A51.56,51.56,0,0,1,625.18,196.86Zm28-53.6-.4-.8H652a80.87,80.87,0,0,0-6.8,8.8q-.4.4-2,2.4a6.41,6.41,0,0,0-1.6,4v.8a21.21,21.21,0,0,0,3-2.6,32.22,32.22,0,0,0,3-3.4l4.8-7.6Z"/><path class="cls-1" d="M752.38,159.66a2.36,2.36,0,0,1,2,1.2v.8a3.56,3.56,0,0,1-.6,1.8c-.4.67-.74,1-1,1q-4,4.41-12.4,6.8t-13.2,2.4h-1.6a14,14,0,0,1-4-.4q-3.6-.8-4.8-2c-.8-.8-1.34-2.4-1.6-4.8l.4-2.4c0-.8-.27-1.2-.8-1.2-.27-.26-.67-.13-1.2.4a114.86,114.86,0,0,0-15.2,15.6,36.57,36.57,0,0,0-6.4,12l-1.2,3.2q-.4,2.4-3.6,3.2a14.19,14.19,0,0,0-4,.4,12.52,12.52,0,0,1-3.6.8,21.55,21.55,0,0,1-4.8-.8,61.2,61.2,0,0,0-8-.4H666q-4,0-3.2-3.6,2-10.8,2.4-11.6a108.38,108.38,0,0,1,6.8-19.6,18.65,18.65,0,0,0,2.4-5.2l3.6-6.8a70.57,70.57,0,0,1,4-7.2,16.86,16.86,0,0,1,3.2-4.4,3.58,3.58,0,0,1,3.6-1.6,1.79,1.79,0,0,0,1.4.2,4.49,4.49,0,0,1,1.4-.2,9.14,9.14,0,0,1,7.2,3.2,9.77,9.77,0,0,1,2.4,7.6q-.81,10.41-1.6,15.2c0,1.34.66,1.74,2,1.2l12-6.4a12.66,12.66,0,0,1,4.4-1.6q3.6,0,4,6l.4,4.4c.53,1.34,1.33,2,2.4,2q9.2,0,15-2.4a41.68,41.68,0,0,0,11-6.8Z"/></g></g></svg>